<svg version="1.0" xmlns="http://www.w3.org/2000/svg" width="24px" height="24px" style="fill: #325AE7" viewBox="0 0 24.000000 24.000000">
    <g transform="translate(0.000000,24.000000) scale(0.000735,-0.000735)">
    <path d="M3061 29725 c-60 -34 -67 -41 -109 -104 l-37 -56 0 -13275 0 -13276 30 -46 c17 -25 46 -58 64 -74 l35 -29 365 3 c202 2 521 8 711 13 190 6 617 17 950 25 333 8 868 21 1190 29 322 8 896 21 1275 29 380 8 764 17 855 20 520 15 1462 37 2125 50 418 8 850 20 960 26 110 5 432 15 715 21 283 5 776 16 1095 24 319 8 893 21 1275 29 382 8 765 17 850 20 172 7 1075 30 1965 49 319 7 587 15 595 19 8 3 393 12 855 18 462 7 845 15 850 19 10 6 372 14 1965 45 415 8 845 20 955 26 110 5 432 15 715 20 283 6 776 17 1095 25 319 8 954 21 1410 30 457 8 866 20 910 25 44 5 328 14 630 20 1315 23 1601 31 1638 42 42 13 104 68 118 105 5 15 9 4890 9 12694 0 11001 -2 12674 -14 12704 -18 41 -38 64 -91 102 -40 28 -42 28 -230 34 -104 3 -426 11 -715 18 -289 6 -640 16 -780 21 -140 6 -498 15 -795 20 -297 5 -684 14 -860 20 -176 6 -531 15 -790 20 -852 18 -1325 29 -1685 40 -330 11 -1027 27 -2160 50 -256 5 -589 14 -740 20 -151 6 -531 15 -845 20 -313 5 -610 12 -660 15 -49 4 -389 13 -755 21 -366 8 -861 18 -1100 24 -239 5 -590 14 -780 20 -190 6 -561 15 -825 20 -264 5 -635 14 -825 20 -190 6 -552 15 -805 20 -765 16 -1311 29 -1685 41 -344 10 -1192 30 -2170 49 -261 5 -590 14 -730 20 -140 6 -502 15 -805 20 -302 5 -689 15 -860 20 -170 6 -524 15 -785 20 -930 19 -1359 29 -1680 40 -179 6 -559 15 -845 20 -286 5 -628 12 -760 14 l-240 5 -44 -24z m8394 -6675 c880 -11 1989 -24 2465 -30 1211 -14 1196 -13 1450 -70 142 -32 274 -95 375 -178 70 -57 165 -177 208 -260 119 -234 147 -407 147 -908 0 -335 -10 -471 -45 -620 -78 -329 -237 -531 -514 -653 -72 -31 -93 -37 -216 -60 -33 -6 -80 -16 -105 -22 -100 -24 -330 -29 -960 -24 -1313 11 -3149 25 -4165 30 -1041 6 -1305 13 -1419 39 -34 8 -97 22 -141 31 -246 53 -425 166 -562 355 -53 73 -84 136 -121 245 -73 215 -85 340 -79 836 4 393 5 407 30 514 48 202 91 306 172 420 88 123 244 243 387 296 65 24 195 53 308 68 47 6 96 13 110 16 33 5 715 -1 2675 -25z m740 -5320 c1722 -5 4545 -12 6275 -16 3959 -8 5264 -17 5375 -38 283 -52 414 -115 561 -268 136 -142 219 -339 256 -613 17 -123 17 -807 0 -930 -22 -166 -59 -293 -119 -415 -51 -104 -65 -124 -152 -210 -102 -101 -191 -157 -318 -199 -102 -34 -295 -69 -410 -75 -60 -3 -1388 -8 -2953 -11 -1565 -3 -4247 -10 -5960 -15 -4822 -15 -6087 -13 -6190 5 -190 35 -267 58 -380 113 -106 51 -123 63 -216 156 -86 87 -108 115 -151 201 -56 110 -92 221 -120 365 -16 83 -18 153 -18 550 0 398 2 467 18 550 50 262 120 411 260 557 148 155 287 221 562 269 117 21 247 31 415 32 74 1 1544 -3 3265 -8z m11350 -5210 c587 -38 864 -262 977 -792 21 -97 22 -128 23 -553 0 -481 -2 -507 -56 -704 -71 -255 -219 -440 -444 -554 -90 -45 -134 -60 -281 -91 -231 -48 -35 -43 -3119 -81 -665 -8 -1622 -20 -2126 -26 -985 -13 -1023 -12 -1269 36 -224 44 -361 115 -496 258 -136 143 -217 332 -256 602 -18 125 -18 837 0 955 45 291 145 508 299 651 172 159 405 237 773 258 96 6 1284 18 2640 26 1356 9 2546 17 2645 18 99 1 261 3 360 4 99 2 248 -2 330 -7z"/>
    </g>
</svg>
